<?xml version="1.0" encoding="utf-8"?>
<!-- Generator: Adobe Illustrator 24.0.3, SVG Export Plug-In . SVG Version: 6.00 Build 0)  -->
<svg version="1.1" id="Layer_1" xmlns="http://www.w3.org/2000/svg" xmlns:xlink="http://www.w3.org/1999/xlink" x="0px" y="0px"
	 viewBox="0 0 512 512" style="enable-background:new 0 0 512 512;" xml:space="preserve">
<path d="M234.2,109.7c-4.3,7.1-2,16.3,5.1,20.6c2.4,1.4,5.1,2.1,7.7,2.1c5.1,0,10.1-2.6,12.9-7.3c10.6-17.6,5.3-35,1.5-47.7
	c-3.3-11.1-5.1-17.7-1.5-23.7c4.3-7.1,2-16.3-5.1-20.6s-16.3-2-20.6,5.1c-10.5,17.6-5.3,35-1.5,47.7
	C236.1,97.2,237.8,103.8,234.2,109.7z"/>
<path d="M305.6,109.7c-4.3,7.1-2,16.3,5.1,20.6c2.4,1.4,5.1,2.1,7.7,2.1c5.1,0,10.1-2.6,12.9-7.3c10.5-17.6,5.3-35,1.5-47.7
	c-3.3-11.1-5.1-17.7-1.5-23.7c4.3-7.1,2-16.3-5.1-20.6s-16.3-2-20.6,5.1c-10.5,17.6-5.3,35-1.5,47.7
	C307.5,97.2,309.2,103.8,305.6,109.7z"/>
<path d="M162.8,109.7c-4.3,7.1-2,16.3,5.1,20.6c2.4,1.4,5.1,2.1,7.7,2.1c5.1,0,10.1-2.6,12.9-7.3c10.5-17.6,5.3-35,1.5-47.7
	c-3.3-11.1-5.1-17.7-1.5-23.7c4.3-7.1,2-16.3-5.1-20.6s-16.3-2-20.6,5.1c-10.5,17.6-5.3,35-1.5,47.7
	C164.6,97.2,166.4,103.8,162.8,109.7z"/>
<path d="M487.9,432.5H24.1C10.8,432.5,0,443.3,0,456.6s10.8,24.1,24.1,24.1h463.8c13.3,0,24.1-10.8,24.1-24.1
	S501.2,432.5,487.9,432.5z"/>
<path d="M107.4,402.5h279.3c4.8-6.3,9.2-12.9,13.2-19.9c0.1-0.1,0.1-0.2,0.2-0.3h7.7c57.5,0,104.3-46.8,104.3-104.3
	s-46.8-104.3-104.3-104.3H86.4c-8.3,0-15,6.7-15,15v107.1c0,30.4,7.9,60.4,22.9,86.7C98.2,389.5,102.6,396.2,107.4,402.5z
	 M422.7,295.9v-90.6c33.8,7,59.3,36.9,59.3,72.7c0,39-30.2,71-68.5,74C419.6,334.1,422.7,315.1,422.7,295.9z"/>
</svg>
